<svg xmlns="http://www.w3.org/2000/svg" xmlns:xlink="http://www.w3.org/1999/xlink" width="1920" zoomAndPan="magnify" viewBox="0 250 1440 300" height="400" preserveAspectRatio="xMidYMid meet" version="1.0"><defs><g/><clipPath id="cac96fd32c"><path d="M 171.199219 303.441406 L 401.449219 303.441406 L 401.449219 506.535156 L 171.199219 506.535156 Z M 171.199219 303.441406 " clip-rule="nonzero"/></clipPath><clipPath id="c484c7fc04"><path d="M 224 362 L 348 362 L 348 506.535156 L 224 506.535156 Z M 224 362 " clip-rule="nonzero"/></clipPath><clipPath id="f2697032bb"><rect x="0" width="863" y="0" height="132"/></clipPath></defs><g clip-path="url(#cac96fd32c)"><path fill="#ffffff" d="M 397.320312 411.613281 L 397.320312 405.480469 C 397.320312 400.214844 393.484375 395.628906 387.792969 393.15625 L 387.792969 382.363281 C 390.425781 382.363281 392.542969 380.730469 392.425781 378.773438 C 391.25 359.039062 380.351562 340.601562 361.441406 326.542969 C 341.398438 311.644531 314.738281 303.425781 286.398438 303.425781 C 258.046875 303.425781 231.386719 311.644531 211.34375 326.542969 C 192.449219 340.601562 181.550781 359.039062 180.375 378.773438 C 180.257812 380.730469 182.375 382.363281 185.007812 382.363281 L 185.007812 393.15625 C 179.300781 395.628906 175.464844 400.214844 175.464844 405.480469 L 175.464844 411.613281 C 173.109375 411.613281 171.199219 413.039062 171.199219 414.789062 L 171.199219 436.289062 C 171.199219 438.039062 173.109375 439.449219 175.464844 439.449219 L 175.464844 445.59375 C 175.464844 453.464844 184.035156 459.832031 194.609375 459.832031 L 198.210938 459.832031 L 198.210938 459.566406 C 199.332031 461.902344 202.332031 463.59375 205.875 463.59375 L 208.226562 463.59375 C 212.726562 463.59375 216.375 460.890625 216.375 457.535156 L 216.375 393.523438 C 216.375 390.1875 212.726562 387.480469 208.226562 387.480469 L 205.875 387.480469 C 202.332031 387.480469 199.332031 389.15625 198.210938 391.507812 L 198.210938 391.230469 L 194.609375 391.230469 C 194.566406 391.230469 194.523438 391.230469 194.476562 391.230469 L 194.476562 382.363281 L 194.699219 382.363281 C 197.183594 382.363281 199.199219 380.90625 199.332031 379.070312 C 201.640625 344.835938 239.8125 317.527344 286.398438 317.527344 C 332.972656 317.527344 371.148438 344.835938 373.457031 379.070312 C 373.589844 380.90625 375.601562 382.363281 378.085938 382.363281 L 378.308594 382.363281 L 378.308594 391.230469 C 378.265625 391.230469 378.21875 391.230469 378.175781 391.230469 L 374.585938 391.230469 L 374.585938 391.507812 C 373.457031 389.15625 370.457031 387.480469 366.910156 387.480469 L 364.558594 387.480469 C 360.058594 387.480469 356.414062 390.1875 356.414062 393.523438 L 356.414062 457.535156 C 356.414062 460.890625 360.058594 463.59375 364.558594 463.59375 L 366.910156 463.59375 C 370.457031 463.59375 373.457031 461.902344 374.585938 459.566406 L 374.585938 459.832031 L 378.175781 459.832031 C 379.207031 459.832031 380.21875 459.773438 381.21875 459.652344 L 381.21875 468.933594 C 381.21875 482.460938 377.042969 493.433594 358.839844 493.433594 L 334.25 493.433594 L 334.25 493.253906 C 334.25 490.003906 331.414062 487.375 327.898438 487.375 L 302.488281 487.375 C 298.988281 487.375 296.136719 490.003906 296.136719 493.253906 L 296.136719 500.667969 C 296.136719 503.902344 298.988281 506.535156 302.488281 506.535156 L 327.898438 506.535156 C 331.414062 506.535156 334.25 503.902344 334.25 500.667969 L 334.25 500.476562 L 358.839844 500.476562 C 382.277344 500.476562 390.691406 486.359375 390.691406 468.933594 L 390.691406 456.359375 C 394.75 453.757812 397.320312 449.90625 397.320312 445.59375 L 397.320312 439.449219 C 399.675781 439.449219 401.585938 438.039062 401.585938 436.289062 L 401.585938 414.789062 C 401.585938 413.039062 399.675781 411.613281 397.320312 411.613281 " fill-opacity="1" fill-rule="nonzero"/></g><g clip-path="url(#c484c7fc04)"><path fill="#ffffff" d="M 325.957031 362.171875 L 246.445312 362.171875 C 234.359375 362.171875 224.566406 371.980469 224.566406 384.054688 L 224.566406 450.226562 C 224.566406 457.832031 228.433594 464.519531 234.3125 468.449219 L 229.695312 506.535156 L 257.285156 472.109375 L 325.957031 472.109375 C 338.058594 472.109375 347.855469 462.316406 347.855469 450.226562 L 347.855469 384.054688 C 347.855469 371.980469 338.058594 362.171875 325.957031 362.171875 Z M 253.328125 426.066406 C 249.238281 426.066406 245.929688 422.742188 245.929688 418.65625 C 245.929688 414.582031 249.238281 411.257812 253.328125 411.257812 C 257.417969 411.257812 260.726562 414.582031 260.726562 418.65625 C 260.726562 422.742188 257.417969 426.066406 253.328125 426.066406 Z M 287.089844 426.066406 C 283.019531 426.066406 279.695312 422.742188 279.695312 418.65625 C 279.695312 414.582031 283.019531 411.257812 287.089844 411.257812 C 291.179688 411.257812 294.503906 414.582031 294.503906 418.65625 C 294.503906 422.742188 291.179688 426.066406 287.089844 426.066406 Z M 320.871094 426.066406 C 316.78125 426.066406 313.472656 422.742188 313.472656 418.65625 C 313.472656 414.582031 316.78125 411.257812 320.871094 411.257812 C 324.957031 411.257812 328.265625 414.582031 328.265625 418.65625 C 328.265625 422.742188 324.957031 426.066406 320.871094 426.066406 " fill-opacity="1" fill-rule="nonzero"/></g><g transform="matrix(1, 0, 0, 1, 414, 343)"><g clip-path="url(#f2697032bb)"><g fill="#ffffff" fill-opacity="1"><g transform="translate(0.972495, 100.269436)"><g><path d="M 44.6875 -86.171875 C 55.519531 -86.171875 64.425781 -83.972656 71.40625 -79.578125 C 78.382812 -75.191406 81.953125 -68.691406 82.109375 -60.078125 L 82.109375 -58.59375 L 56.625 -58.59375 L 56.625 -59.09375 C 56.625 -61.550781 55.722656 -63.597656 53.921875 -65.234375 C 52.117188 -66.878906 49.367188 -67.703125 45.671875 -67.703125 C 42.054688 -67.703125 39.285156 -67.171875 37.359375 -66.109375 C 35.429688 -65.046875 34.46875 -63.734375 34.46875 -62.171875 C 34.46875 -59.953125 35.78125 -58.304688 38.40625 -57.234375 C 41.03125 -56.171875 45.257812 -55.066406 51.09375 -53.921875 C 57.90625 -52.523438 63.503906 -51.066406 67.890625 -49.546875 C 72.285156 -48.035156 76.125 -45.554688 79.40625 -42.109375 C 82.6875 -38.660156 84.367188 -33.976562 84.453125 -28.0625 C 84.453125 -18.050781 81.066406 -10.625 74.296875 -5.78125 C 67.523438 -0.9375 58.476562 1.484375 47.15625 1.484375 C 33.9375 1.484375 23.65625 -0.726562 16.3125 -5.15625 C 8.96875 -9.59375 5.296875 -17.4375 5.296875 -28.6875 L 31.03125 -28.6875 C 31.03125 -24.414062 32.132812 -21.5625 34.34375 -20.125 C 36.5625 -18.6875 40.007812 -17.96875 44.6875 -17.96875 C 48.132812 -17.96875 50.984375 -18.335938 53.234375 -19.078125 C 55.492188 -19.816406 56.625 -21.335938 56.625 -23.640625 C 56.625 -25.691406 55.375 -27.226562 52.875 -28.25 C 50.375 -29.28125 46.289062 -30.367188 40.625 -31.515625 C 33.726562 -32.992188 28.023438 -34.53125 23.515625 -36.125 C 19.003906 -37.726562 15.0625 -40.375 11.6875 -44.0625 C 8.320312 -47.757812 6.640625 -52.769531 6.640625 -59.09375 C 6.640625 -68.363281 10.226562 -75.191406 17.40625 -79.578125 C 24.59375 -83.972656 33.6875 -86.171875 44.6875 -86.171875 Z M 44.6875 -86.171875 "/></g></g></g><g fill="#ffffff" fill-opacity="1"><g transform="translate(89.86119, 100.269436)"><g><path d="M 54.53125 0 L 52.9375 -9.84375 C 50.394531 -6.320312 47.050781 -3.550781 42.90625 -1.53125 C 38.757812 0.476562 34.390625 1.484375 29.796875 1.484375 C 22.242188 1.484375 16.578125 -0.609375 12.796875 -4.796875 C 9.023438 -8.984375 7.140625 -15.015625 7.140625 -22.890625 L 7.140625 -65 L 31.640625 -65 L 31.640625 -25.859375 C 31.640625 -23.066406 32.359375 -20.828125 33.796875 -19.140625 C 35.234375 -17.460938 37.265625 -16.625 39.890625 -16.625 C 42.921875 -16.625 45.378906 -17.609375 47.265625 -19.578125 C 49.160156 -21.546875 50.109375 -23.96875 50.109375 -26.84375 L 50.109375 -65 L 74.609375 -65 L 74.609375 0 Z M 54.53125 0 "/></g></g></g><g fill="#ffffff" fill-opacity="1"><g transform="translate(171.978676, 100.269436)"><g><path d="M 50.234375 -66.484375 C 59.015625 -66.484375 65.785156 -63.609375 70.546875 -57.859375 C 75.304688 -52.117188 77.6875 -43.625 77.6875 -32.375 C 77.6875 -21.21875 75.304688 -12.785156 70.546875 -7.078125 C 65.785156 -1.367188 59.015625 1.484375 50.234375 1.484375 C 42.679688 1.484375 36.609375 -0.976562 32.015625 -5.90625 L 32.015625 24.25 L 7.515625 24.25 L 7.515625 -65 L 27.453125 -65 L 29.546875 -55.765625 C 34.304688 -62.910156 41.203125 -66.484375 50.234375 -66.484375 Z M 42.59375 -48.375 C 38.976562 -48.375 36.269531 -47.101562 34.46875 -44.5625 C 32.664062 -42.019531 31.765625 -38.695312 31.765625 -34.59375 L 31.765625 -30.53125 C 31.765625 -26.425781 32.664062 -23.082031 34.46875 -20.5 C 36.269531 -17.914062 38.976562 -16.625 42.59375 -16.625 C 49.65625 -16.625 53.1875 -20.847656 53.1875 -29.296875 L 53.1875 -35.828125 C 53.1875 -44.191406 49.65625 -48.375 42.59375 -48.375 Z M 42.59375 -48.375 "/></g></g></g><g fill="#ffffff" fill-opacity="1"><g transform="translate(254.096162, 100.269436)"><g><path d="M 50.234375 -66.484375 C 59.015625 -66.484375 65.785156 -63.609375 70.546875 -57.859375 C 75.304688 -52.117188 77.6875 -43.625 77.6875 -32.375 C 77.6875 -21.21875 75.304688 -12.785156 70.546875 -7.078125 C 65.785156 -1.367188 59.015625 1.484375 50.234375 1.484375 C 42.679688 1.484375 36.609375 -0.976562 32.015625 -5.90625 L 32.015625 24.25 L 7.515625 24.25 L 7.515625 -65 L 27.453125 -65 L 29.546875 -55.765625 C 34.304688 -62.910156 41.203125 -66.484375 50.234375 -66.484375 Z M 42.59375 -48.375 C 38.976562 -48.375 36.269531 -47.101562 34.46875 -44.5625 C 32.664062 -42.019531 31.765625 -38.695312 31.765625 -34.59375 L 31.765625 -30.53125 C 31.765625 -26.425781 32.664062 -23.082031 34.46875 -20.5 C 36.269531 -17.914062 38.976562 -16.625 42.59375 -16.625 C 49.65625 -16.625 53.1875 -20.847656 53.1875 -29.296875 L 53.1875 -35.828125 C 53.1875 -44.191406 49.65625 -48.375 42.59375 -48.375 Z M 42.59375 -48.375 "/></g></g></g><g fill="#ffffff" fill-opacity="1"><g transform="translate(336.213647, 100.269436)"><g><path d="M 41 -66.484375 C 52.40625 -66.484375 61.367188 -63.585938 67.890625 -57.796875 C 74.421875 -52.015625 77.6875 -43.582031 77.6875 -32.5 C 77.6875 -21.414062 74.421875 -12.976562 67.890625 -7.1875 C 61.367188 -1.40625 52.40625 1.484375 41 1.484375 C 29.59375 1.484375 20.644531 -1.390625 14.15625 -7.140625 C 7.675781 -12.890625 4.4375 -21.34375 4.4375 -32.5 C 4.4375 -43.664062 7.675781 -52.117188 14.15625 -57.859375 C 20.644531 -63.609375 29.59375 -66.484375 41 -66.484375 Z M 41 -49.859375 C 32.957031 -49.859375 28.9375 -45.222656 28.9375 -35.953125 L 28.9375 -28.9375 C 28.9375 -19.738281 32.957031 -15.140625 41 -15.140625 C 49.125 -15.140625 53.1875 -19.738281 53.1875 -28.9375 L 53.1875 -35.953125 C 53.1875 -45.222656 49.125 -49.859375 41 -49.859375 Z M 41 -49.859375 "/></g></g></g><g fill="#ffffff" fill-opacity="1"><g transform="translate(418.331133, 100.269436)"><g><path d="M 46.90625 -66.609375 C 48.789062 -66.609375 50.472656 -66.378906 51.953125 -65.921875 C 53.429688 -65.472656 54.171875 -65.207031 54.171875 -65.125 L 54.171875 -44.5625 L 46.296875 -44.5625 C 41.203125 -44.5625 37.523438 -43.25 35.265625 -40.625 C 33.015625 -38 31.890625 -34.101562 31.890625 -28.9375 L 31.890625 0 L 7.390625 0 L 7.390625 -65 L 27.453125 -65 L 29.046875 -55.15625 C 30.523438 -58.925781 32.863281 -61.773438 36.0625 -63.703125 C 39.269531 -65.640625 42.882812 -66.609375 46.90625 -66.609375 Z M 46.90625 -66.609375 "/></g></g></g><g fill="#ffffff" fill-opacity="1"><g transform="translate(479.149794, 100.269436)"><g><path d="M 50.71875 -65 L 50.71875 -48.375 L 36.9375 -48.375 L 36.9375 -23.640625 C 36.9375 -20.679688 37.425781 -18.523438 38.40625 -17.171875 C 39.394531 -15.816406 41.203125 -15.140625 43.828125 -15.140625 L 50.71875 -15.140625 L 50.71875 -0.734375 C 48.75 -0.078125 46.203125 0.453125 43.078125 0.859375 C 39.960938 1.273438 37.257812 1.484375 34.96875 1.484375 C 27.738281 1.484375 22.175781 0.171875 18.28125 -2.453125 C 14.382812 -5.085938 12.4375 -9.5625 12.4375 -15.875 L 12.4375 -48.375 L 3.328125 -48.375 L 3.328125 -65 L 13.421875 -65 L 18.71875 -84.703125 L 36.9375 -84.703125 L 36.9375 -65 Z M 50.71875 -65 "/></g></g></g><g fill="#ffffff" fill-opacity="1"><g transform="translate(533.812715, 100.269436)"><g><path d="M 9.109375 -84.703125 L 77.5625 -84.703125 L 77.5625 -64.390625 L 36.3125 -64.390625 L 36.3125 -49.859375 L 71.765625 -49.859375 L 71.765625 -30.40625 L 36.3125 -30.40625 L 36.3125 0 L 9.109375 0 Z M 9.109375 -84.703125 "/></g></g></g><g fill="#ffffff" fill-opacity="1"><g transform="translate(616.915161, 100.269436)"><g><path d="M 8.25 0 L 8.25 -89.25 L 32.75 -89.25 L 32.75 0 Z M 8.25 0 "/></g></g></g><g fill="#ffffff" fill-opacity="1"><g transform="translate(657.912381, 100.269436)"><g><path d="M 41 -66.484375 C 52.40625 -66.484375 61.367188 -63.585938 67.890625 -57.796875 C 74.421875 -52.015625 77.6875 -43.582031 77.6875 -32.5 C 77.6875 -21.414062 74.421875 -12.976562 67.890625 -7.1875 C 61.367188 -1.40625 52.40625 1.484375 41 1.484375 C 29.59375 1.484375 20.644531 -1.390625 14.15625 -7.140625 C 7.675781 -12.890625 4.4375 -21.34375 4.4375 -32.5 C 4.4375 -43.664062 7.675781 -52.117188 14.15625 -57.859375 C 20.644531 -63.609375 29.59375 -66.484375 41 -66.484375 Z M 41 -49.859375 C 32.957031 -49.859375 28.9375 -45.222656 28.9375 -35.953125 L 28.9375 -28.9375 C 28.9375 -19.738281 32.957031 -15.140625 41 -15.140625 C 49.125 -15.140625 53.1875 -19.738281 53.1875 -28.9375 L 53.1875 -35.953125 C 53.1875 -45.222656 49.125 -49.859375 41 -49.859375 Z M 41 -49.859375 "/></g></g></g><g fill="#ffffff" fill-opacity="1"><g transform="translate(737.813851, 100.269436)"><g><path d="M 68.453125 0 L 58.359375 -36.1875 L 57.859375 -36.1875 L 47.640625 0 L 23.765625 0 L 0 -65 L 26.34375 -65 L 36.1875 -26.59375 L 37.0625 -26.59375 L 47.28125 -65 L 71.65625 -65 L 81.5 -26.59375 L 82.359375 -26.59375 L 92.328125 -65 L 116.21875 -65 L 92.328125 0 Z M 68.453125 0 "/></g></g></g></g></g></svg>